<?xml version="1.0" encoding="UTF-8" standalone="no"?>
<svg
   xmlns:dc="http://purl.org/dc/elements/1.1/"
   xmlns:cc="http://creativecommons.org/ns#"
   xmlns:rdf="http://www.w3.org/1999/02/22-rdf-syntax-ns#"
   xmlns:svg="http://www.w3.org/2000/svg"
   xmlns="http://www.w3.org/2000/svg"
   version="1.1"
   id="Capa_1"
   x="0px"
   y="0px"
   viewBox="0 0 419.95499 512"
   xml:space="preserve"
   width="419.95499"
   height="512"><metadata
   id="metadata13"><rdf:RDF><cc:Work
       rdf:about=""><dc:format>image/svg+xml</dc:format><dc:type
         rdf:resource="http://purl.org/dc/dcmitype/StillImage" /><dc:title></dc:title></cc:Work></rdf:RDF></metadata><defs
   id="defs11" />
<g
   id="g6"
   transform="translate(-46.022)">
	<path
   d="M 185.255,512 C 109.054,511.561 46.022,356.009 46.022,276.79 c 0,-129.404 97.075,-157.734 134.487,-157.734 16.86,0 34.863,6.621 50.742,12.48 11.104,4.087 22.588,8.306 28.975,8.306 3.823,0 12.832,-3.589 20.786,-6.738 16.963,-6.753 38.071,-15.146 62.651,-15.146 0.044,0 0.103,0 0.146,0 18.354,0 74.004,4.028 107.461,54.272 l 7.837,11.777 -11.279,8.511 c -16.113,12.158 -45.513,34.336 -45.513,78.267 0,52.031 33.296,72.041 49.292,81.665 7.061,4.248 14.37,8.628 14.37,18.208 0,6.255 -49.922,140.566 -122.417,140.566 -17.739,0 -30.278,-5.332 -41.338,-10.034 -11.191,-4.761 -20.845,-8.862 -36.797,-8.862 -8.086,0 -18.311,3.823 -29.136,7.881 C 221.496,505.73 204.752,512 185.753,512 Z"
   id="path2" />
	<path
   d="M 351.343,0 C 353.231,68.076 304.546,115.304 255.918,112.342 247.905,58.015 304.54,0 351.343,0 Z"
   id="path4" />
</g>















</svg>
