<svg
   version="1.1"
   viewBox="0 0 188.00301 210.00101"
   xml:space="preserve" >
<path
   d="M 179.322,90.03 25.786,2.266 C 23.139,0.754 20.192,0 17.245,0 17.185,0 17.126,0.008 17.067,0.008 16.671,0.012 16.276,0.032 15.882,0.063 15.704,0.077 15.527,0.096 15.349,0.116 15.041,0.15 14.734,0.193 14.428,0.244 14.317,0.263 14.205,0.269 14.094,0.29 L 14.1,0.298 C 12.187,0.651 10.32,1.325 8.585,2.332 3.271,5.415 0,11.094 0,17.237 v 175.527 c 0,6.143 3.271,11.822 8.585,14.905 1.734,1.007 3.601,1.682 5.514,2.035 l -0.005,0.007 c 0.1,0.019 0.201,0.025 0.3,0.041 0.329,0.056 0.659,0.102 0.99,0.137 0.166,0.018 0.331,0.036 0.497,0.049 0.389,0.031 0.777,0.049 1.167,0.054 0.066,0.001 0.131,0.009 0.197,0.009 2.947,0 5.894,-0.754 8.541,-2.266 L 179.322,119.97 c 5.368,-3.069 8.681,-8.777 8.681,-14.962 0,0 0,-0.003 0,-0.004 0,0 0,-0.003 0,-0.004 0,0 0,-0.003 0,-0.004 0,0 0,-0.003 0,-0.004 0,-6.184 -3.313,-11.892 -8.681,-14.962 z M 118.604,72.601 103.338,92.628 64.498,41.672 Z m 53.274,34.346 -107.38,61.381 67.234,-88.206 40.145,22.947 c 0.695,0.397 1.127,1.141 1.127,1.938 -0.001,0.8 -0.433,1.544 -1.126,1.94 z"
   id="path2"
   style="display:inline;fill:#ebe9e7" />

</svg>


