<?xml version="1.0" encoding="UTF-8" standalone="no"?>
<svg
   version="1.1"
   id="svg2"
   xml:space="preserve"
   width="499.99963"
   height="499.99973"
   viewBox="0 0 499.99964 499.99973"
   xmlns="http://www.w3.org/2000/svg"
   xmlns:svg="http://www.w3.org/2000/svg"
   xmlns:rdf="http://www.w3.org/1999/02/22-rdf-syntax-ns#"
   xmlns:cc="http://creativecommons.org/ns#"
   xmlns:dc="http://purl.org/dc/elements/1.1/"><metadata
     id="metadata8"><rdf:RDF><cc:Work
         rdf:about=""><dc:format>image/svg+xml</dc:format><dc:type
           rdf:resource="http://purl.org/dc/dcmitype/StillImage" /></cc:Work></rdf:RDF></metadata><defs
     id="defs6"><clipPath
       clipPathUnits="userSpaceOnUse"
       id="clipPath26"><path
         d="M 0,500 H 500 V 0 H 0 Z"
         id="path24" /></clipPath><clipPath
       clipPathUnits="userSpaceOnUse"
       id="clipPath54"><path
         d="M 0,500 H 500 V 0 H 0 Z"
         id="path52" /></clipPath><clipPath
       clipPathUnits="userSpaceOnUse"
       id="clipPath86"><path
         d="M 0,500 H 500 V 0 H 0 Z"
         id="path84" /></clipPath><clipPath
       clipPathUnits="userSpaceOnUse"
       id="clipPath114"><path
         d="M 0,500 H 500 V 0 H 0 Z"
         id="path112" /></clipPath><clipPath
       clipPathUnits="userSpaceOnUse"
       id="clipPath150"><path
         d="M 0,500 H 500 V 0 H 0 Z"
         id="path148" /></clipPath><clipPath
       clipPathUnits="userSpaceOnUse"
       id="clipPath174"><path
         d="M 0,500 H 500 V 0 H 0 Z"
         id="path172" /></clipPath><clipPath
       clipPathUnits="userSpaceOnUse"
       id="clipPath198"><path
         d="M 0,500 H 500 V 0 H 0 Z"
         id="path196" /></clipPath><clipPath
       clipPathUnits="userSpaceOnUse"
       id="clipPath242"><path
         d="M 0,500 H 500 V 0 H 0 Z"
         id="path240" /></clipPath><clipPath
       clipPathUnits="userSpaceOnUse"
       id="clipPath266"><path
         d="M 0,500 H 500 V 0 H 0 Z"
         id="path264" /></clipPath><clipPath
       clipPathUnits="userSpaceOnUse"
       id="clipPath150-7"><path
         d="M 0,500 H 500 V 0 H 0 Z"
         id="path148-5" /></clipPath></defs><g
     id="g10"
     transform="matrix(1.3333333,0,0,-1.3333333,-397.99812,534.00975)"><path
       d="m 325.52894,292.58628 h 320.93884 c 14.76322,0 26.74552,12.36189 26.74552,27.81409 0,13.90705 -11.9823,26.26873 -26.74552,26.26873 H 325.52894 c -14.76324,0 -26.74531,-12.36168 -26.74531,-26.26873 0,-15.4522 11.98207,-27.81409 26.74531,-27.81409 z M 646.46778,240.04882 H 325.52894 c -14.76324,0 -26.74531,-12.36168 -26.74531,-27.81387 0,-13.90706 11.98207,-26.26894 26.74531,-26.26894 h 320.93884 c 14.76322,0 26.74552,12.36188 26.74552,26.26894 0,15.45219 -11.9823,27.81387 -26.74552,27.81387 z m 0,-106.62026 H 325.52894 c -14.76324,0 -26.74531,-12.36168 -26.74531,-27.81388 0,-13.907045 11.98207,-26.268932 26.74531,-26.268932 h 320.93884 c 14.76322,0 26.74552,12.361887 26.74552,26.268932 0,15.4522 -11.9823,27.81388 -26.74552,27.81388 z"
       id="path2210"
       style="display:inline;opacity:0.85186;fill:#ffffff;stroke-width:3.09111;stroke-miterlimit:4;stroke-dasharray:none" /></g></svg>
