<svg
   width="4.2139001mm"
   height="4.2139401mm"
   viewBox="0 0 4.2139001 4.2139401"
   version="1.1" >
  <path
     d="m 2.1069,4.21394 c 1.1631,0 2.107,-0.94392 2.107,-2.10697 C 4.2139,0.94392 3.27,0 2.1069,0 0.9439,0 0,0.94392 0,2.10697 0,3.27002 0.9439,4.21394 2.1069,4.21394 Z M 2.9624,3.10006 v 1.7e-4 c -0.1417,0 -0.5893,-0.49655 -1.8472,-0.2388 -0.033,0.009 -0.076,0.0221 -0.1011,0.0221 -0.1607,0 -0.1914,-0.24037 -0.019,-0.27706 C 1.6909,2.45283 2.402,2.46635 3.0085,2.8291 3.1532,2.9215 3.0915,3.10002 2.9625,3.10002 Z M 3.1911,2.54294 C 3.1711,2.53794 3.1771,2.55504 3.0863,2.50734 2.5552,2.19304 1.7637,2.06628 1.0592,2.25748 c -0.041,0.0111 -0.063,0.0221 -0.1011,0.0221 -0.188,0 -0.2379,-0.28286 -0.033,-0.34062 0.828,-0.23265 1.7163,-0.0969 2.3347,0.27092 0.069,0.0407 0.096,0.0936 0.096,0.16733 -8e-4,0.0917 -0.072,0.16574 -0.1647,0.16574 z M 0.7985,1.22871 C 1.5926,0.99625 2.7945,1.06964 3.5418,1.50578 3.7333,1.61622 3.658,1.89557 3.4548,1.89557 L 3.4547,1.8954 C 3.4107,1.8954 3.3827,1.8843 3.3449,1.8622 2.7404,1.50121 1.6586,1.41465 0.9588,1.61007 c -0.031,0.008 -0.069,0.0219 -0.1098,0.0219 -0.1122,0 -0.1978,-0.0876 -0.1978,-0.20052 0,-0.11535 0.071,-0.18067 0.1478,-0.20279 z"
     id="path1254-7"
     style="display:inline;fill:#ffffff;stroke-width:0.17558" />
</svg>
