<?xml version="1.0" encoding="UTF-8" standalone="no"?>
<!-- Created with Inkscape (http://www.inkscape.org/) -->

<svg
   width="132.29167mm"
   height="132.29167mm"
   viewBox="0 0 132.29167 132.29167"
   version="1.1"
   id="svg11740"
   xmlns="http://www.w3.org/2000/svg"
   xmlns:svg="http://www.w3.org/2000/svg">
  <defs
     id="defs11737" />
  <g
     id="layer1"
     transform="translate(83.407875,-22.037466)">
    <g
       id="g1688"
       transform="matrix(0.2583804,0,0,0.2583804,-83.407938,22.037467)"
       style="fill:#ffffff">
      <g
         id="g1622"
         style="fill:#ffffff">
        <g
           id="g1620"
           style="fill:#ffffff">
          <path
             d="m 351.98,0 c -27.296,1.888 -59.2,19.36 -77.792,42.112 -16.96,20.64 -30.912,51.296 -25.472,81.088 29.824,0.928 60.64,-16.96 78.496,-40.096 16.704,-21.536 29.344,-52 24.768,-83.104 z"
             id="path1618"
             style="fill:#ffffff" />
        </g>
      </g>
      <g
         id="g1628"
         style="fill:#ffffff">
        <g
           id="g1626"
           style="fill:#ffffff">
          <path
             d="m 459.852,171.776 c -26.208,-32.864 -63.04,-51.936 -97.824,-51.936 -45.92,0 -65.344,21.984 -97.248,21.984 -32.896,0 -57.888,-21.92 -97.6,-21.92 -39.008,0 -80.544,23.84 -106.88,64.608 -37.024,57.408 -30.688,165.344 29.312,257.28 21.472,32.896 50.144,69.888 87.648,70.208 33.376,0.32 42.784,-21.408 88,-21.632 45.216,-0.256 53.792,21.92 87.104,21.568 37.536,-0.288 67.776,-41.28 89.248,-74.176 15.392,-23.584 21.12,-35.456 33.056,-62.08 C 387.852,342.624 373.932,219.168 459.852,171.776 Z"
             id="path1624"
             style="fill:#ffffff" />
        </g>
      </g>
      <g
         id="g1630"
         style="fill:#ffffff" />
      <g
         id="g1632"
         style="fill:#ffffff" />
      <g
         id="g1634"
         style="fill:#ffffff" />
      <g
         id="g1636"
         style="fill:#ffffff" />
      <g
         id="g1638"
         style="fill:#ffffff" />
      <g
         id="g1640"
         style="fill:#ffffff" />
      <g
         id="g1642"
         style="fill:#ffffff" />
      <g
         id="g1644"
         style="fill:#ffffff" />
      <g
         id="g1646"
         style="fill:#ffffff" />
      <g
         id="g1648"
         style="fill:#ffffff" />
      <g
         id="g1650"
         style="fill:#ffffff" />
      <g
         id="g1652"
         style="fill:#ffffff" />
      <g
         id="g1654"
         style="fill:#ffffff" />
      <g
         id="g1656"
         style="fill:#ffffff" />
      <g
         id="g1658"
         style="fill:#ffffff" />
    </g>
  </g>
</svg>
