<?xml version="1.0" encoding="UTF-8" standalone="no"?>
<!-- Created with Inkscape (http://www.inkscape.org/) -->

<svg
   width="500mm"
   height="499.99976mm"
   viewBox="0 0 500 499.99976"
   version="1.1"
   id="svg244"
   xmlns="http://www.w3.org/2000/svg"
   xmlns:svg="http://www.w3.org/2000/svg">
  <defs
     id="defs241" />
  <g
     id="layer1"
     transform="translate(192.84482,-59.030532)">
    <path
       d="m 57.15542,559.03029 c 137.99953,0 249.99976,-112.00083 249.99976,-249.99988 0,-138.00024 -112.00023,-249.999878 -249.99976,-249.999878 -138.00036,0 -250.00024,111.999638 -250.00024,249.999878 0,137.99905 111.99988,249.99988 250.00024,249.99988 z M 158.65504,426.86307 v 0.0202 c -16.81241,0 -69.9166,-58.91633 -219.16676,-28.33332 -3.93693,1.06788 -9.08294,2.62224 -11.99969,2.62224 -19.06267,0 -22.70843,-28.5208 -2.20696,-32.87539 82.5622396,-18.22877 166.93716,-16.62458 238.89555,26.41707 17.16671,10.96361 9.87437,32.14567 -5.52095,32.14567 z m 27.1462,-66.10319 c -2.35409,-0.59326 -1.66709,1.43571 -12.43765,-4.22407 -63.02115,-37.29168 -156.93725,-52.33342 -240.52075,-29.64564 -4.83277,1.31706 -7.45857,2.62225 -12.00028,2.62225 -22.31225,0 -28.22903,-33.5624 -3.91676,-40.41702 98.24969,-27.60361 203.64566,-11.49755 277.02078,32.14567 8.16694,4.82921 11.3955,11.10599 11.3955,19.85433 -0.0941,10.88055 -8.56205,19.66686 -19.54132,19.66686 z M -98.09458,204.82157 c 94.2288696,-27.58343 236.83299,-18.87543 325.49985,32.8754 22.72908,13.10412 13.7916,46.25004 -10.37508,46.25004 l -0.0204,-0.0202 c -5.25043,0 -8.479,-1.31706 -13.02094,-3.93931 -71.72916,-42.83281 -200.0833204,-53.10467 -283.12469,-29.91616 -3.64623,0.94923 -8.18829,2.59851 -13.02082,2.59851 -13.3126,0 -23.47944,-10.39407 -23.47944,-23.79126 0,-13.6879 8.47899,-21.43717 17.54189,-24.06298 z"
       id="path1254"
       style="fill:#ffffff;stroke-width:20.8332" />
  </g>
</svg>
